<?xml version="1.0" encoding="utf-8"?>
<!-- Generator: Adobe Illustrator 16.0.0, SVG Export Plug-In . SVG Version: 6.00 Build 0)  -->
<!DOCTYPE svg PUBLIC "-//W3C//DTD SVG 1.1//EN" "http://www.w3.org/Graphics/SVG/1.1/DTD/svg11.dtd">
<svg version="1.1" id="Layer_1" xmlns="http://www.w3.org/2000/svg" xmlns:xlink="http://www.w3.org/1999/xlink" x="0px" y="0px"
	 width="144px" height="50px" viewBox="6.5 4.5 144 50" enable-background="new 6.5 4.5 144 50" xml:space="preserve">
<g>
	<g>
		<path fill="#FFFFFF" d="M24.506,21.479h19.882v7.553H24.506v10.362H12.451V21.479H24.506z M12.451,18.026V9.385h38.476v8.641
			H24.506L12.451,18.026L12.451,18.026z"/>
	</g>
	<g>
		<polygon fill="#FFFFFF" points="65.997,9.385 53.942,9.385 53.942,39.396 85.57,39.396 85.57,31.841 65.997,31.841 		"/>
	</g>
	<g>
		<rect x="89.712" y="9.385" fill="#FFFFFF" width="12.057" height="30.01"/>
	</g>
	<g>
		<path fill="#FFFFFF" d="M129.714,20.179v1.302h-11.58h-11.993v17.916h11.993V29.249h11.58c1.621,0,3.162-0.234,4.636-0.711
			c1.463-0.468,2.741-1.124,3.816-1.947c1.083-0.815,1.939-1.759,2.582-2.827c0.644-1.057,0.959-2.2,0.959-3.407
			c0-1.414-0.193-2.78-0.581-4.1c-0.387-1.329-1.056-2.49-2-3.501c-0.942-1.002-2.186-1.816-3.719-2.443
			c-1.535-0.618-3.429-0.927-5.693-0.927h-23.573v8.641h11.993h11.58v1.385V20.179L129.714,20.179z"/>
	</g>
	<g>
		<path fill="#F2EA2F" d="M141.963,22.772c0.16-0.074,1.102-0.459,1.245-0.534c0.104-0.074,0.166-0.093,0.255-0.168
			c1.082-0.815,1.957-1.77,2.598-2.836c0.644-1.068,0.96-2.201,0.96-3.408c0-1.413-0.192-2.78-0.579-4.11
			c-0.39-1.319-1.059-2.49-2.001-3.492c-0.943-1.01-2.187-1.826-3.72-2.443c-1.533-0.618-3.429-0.926-5.695-0.926H110.44v2.594
			h21.731c2.256,0,4.151,0.308,5.685,0.927c1.534,0.617,2.776,1.433,3.721,2.434c0.95,1.011,1.612,2.181,2,3.5
			c0.388,1.33,0.58,2.697,0.58,4.101c0,1.217-0.494,2.256-1.137,3.324C142.88,21.966,142.13,22.548,141.963,22.772z"/>
	</g>
	<g>
		<path fill="#F99F1B" d="M141.514,22.95c0.15-0.084,0.301-0.159,0.449-0.243c0.097-0.066,0.193-0.141,0.291-0.216
			c1.084-0.814,1.938-1.758,2.582-2.827c0.635-1.067,0.96-2.2,0.96-3.408c0-1.413-0.193-2.78-0.581-4.109
			c-0.388-1.321-1.058-2.481-1.999-3.493c-0.943-1.01-2.187-1.815-3.72-2.443c-1.533-0.618-3.437-0.926-5.695-0.926h-23.36v2.593
			h20.506c2.254,0,4.151,0.308,5.686,0.926c1.534,0.618,2.775,1.432,3.719,2.443c0.953,1.002,1.612,2.172,2,3.492
			c0.389,1.33,0.581,2.695,0.581,4.101c0,1.216-0.317,2.349-0.962,3.417C141.831,22.491,141.674,22.725,141.514,22.95z"/>
	</g>
	<g>
		<path fill="#FFFFFF" d="M12.993,52.272v-3.962c0-0.07-0.02-0.12-0.059-0.158c-0.039-0.034-0.109-0.065-0.21-0.089v-0.108h1.788
			v0.11c-0.1,0.02-0.17,0.049-0.209,0.087s-0.059,0.09-0.059,0.16v3.962c0,0.07,0.02,0.126,0.062,0.162
			c0.04,0.039,0.109,0.067,0.207,0.089v0.11h-1.788v-0.11c0.101-0.022,0.17-0.054,0.21-0.091
			C12.973,52.398,12.993,52.345,12.993,52.272z"/>
		<path fill="#FFFFFF" d="M17.844,50.104v2.176c0,0.072,0.02,0.128,0.061,0.166c0.041,0.037,0.11,0.069,0.208,0.093v0.095h-1.561
			v-0.095c0.099-0.021,0.168-0.05,0.208-0.089c0.041-0.041,0.06-0.094,0.06-0.166v-3.141c0-0.07-0.019-0.125-0.058-0.161
			c-0.038-0.037-0.109-0.067-0.209-0.091v-0.096h1.805v0.096c-0.124,0.023-0.185,0.067-0.185,0.131c0,0.057,0.044,0.119,0.133,0.192
			l2.521,2.042v-2.113c0-0.07-0.021-0.127-0.059-0.163c-0.04-0.039-0.11-0.067-0.21-0.091v-0.096h1.562v0.096
			c-0.101,0.023-0.171,0.052-0.21,0.091c-0.039,0.036-0.059,0.093-0.059,0.163v3.135c0,0.072,0.02,0.128,0.059,0.164
			c0.038,0.039,0.109,0.069,0.21,0.095v0.095h-1.683v-0.095c0.123-0.02,0.185-0.062,0.185-0.128c0-0.03-0.017-0.062-0.052-0.095
			c-0.033-0.036-0.11-0.103-0.23-0.203L17.844,50.104z"/>
		<path fill="#FFFFFF" d="M26.572,51.419l1.141-2.031c0.067-0.117,0.1-0.206,0.1-0.26c0-0.115-0.09-0.195-0.272-0.236v-0.096h1.817
			v0.096c-0.113,0.027-0.193,0.063-0.244,0.107c-0.05,0.044-0.114,0.133-0.192,0.269l-1.645,2.826
			c-0.059,0.101-0.088,0.177-0.088,0.231c0,0.113,0.093,0.185,0.277,0.216v0.093h-1.843v-0.093c0.182-0.031,0.272-0.103,0.272-0.216
			c0-0.055-0.03-0.131-0.088-0.231l-1.645-2.826c-0.078-0.138-0.142-0.229-0.191-0.271s-0.131-0.078-0.245-0.105v-0.096h1.882v0.096
			c-0.178,0.045-0.268,0.123-0.268,0.236c0,0.048,0.035,0.136,0.104,0.26L26.572,51.419z"/>
		<path fill="#FFFFFF" d="M32.35,51.003v0.936h2.983c0.086,0,0.152-0.016,0.199-0.048c0.046-0.031,0.083-0.09,0.111-0.172h0.117
			v1.136h-0.117c-0.026-0.081-0.061-0.137-0.11-0.171c-0.047-0.033-0.114-0.05-0.201-0.05h-4.376v-0.095
			c0.098-0.021,0.167-0.05,0.208-0.089c0.041-0.041,0.061-0.094,0.061-0.166v-3.141c0-0.07-0.02-0.125-0.059-0.161
			c-0.04-0.037-0.109-0.067-0.21-0.091v-0.096h4.247c0.089,0,0.157-0.018,0.204-0.051c0.045-0.031,0.083-0.09,0.111-0.172h0.113
			v1.138h-0.113c-0.027-0.084-0.066-0.142-0.111-0.173c-0.046-0.033-0.114-0.048-0.204-0.048H32.35v0.843h1.77
			c0.088,0,0.153-0.018,0.2-0.048c0.046-0.032,0.084-0.089,0.115-0.172h0.113v1.107h-0.113c-0.028-0.081-0.065-0.137-0.111-0.17
			c-0.046-0.03-0.114-0.048-0.204-0.048H32.35L32.35,51.003z"/>
		<path fill="#FFFFFF" d="M38.98,51.057v1.224c0,0.072,0.019,0.128,0.058,0.164c0.039,0.037,0.11,0.067,0.21,0.093v0.097h-1.661
			v-0.097c0.098-0.02,0.167-0.05,0.208-0.089c0.041-0.04,0.061-0.094,0.061-0.166v-3.139c0-0.07-0.019-0.125-0.059-0.161
			c-0.039-0.037-0.109-0.067-0.209-0.093v-0.096h3.08c0.401,0,0.706,0.017,0.915,0.05c0.21,0.032,0.396,0.095,0.562,0.179
			c0.338,0.181,0.508,0.476,0.508,0.884c0,0.312-0.104,0.554-0.312,0.729c-0.208,0.176-0.545,0.303-1.009,0.38l0.89,1.013
			c0.162,0.188,0.292,0.315,0.388,0.381c0.097,0.067,0.206,0.111,0.329,0.129v0.097h-1.976v-0.097
			c0.146-0.033,0.218-0.082,0.218-0.152c0-0.05-0.044-0.129-0.134-0.23l-0.938-1.098H38.98L38.98,51.057z M38.98,50.362h1.695
			c0.257,0,0.448-0.025,0.57-0.069c0.173-0.062,0.26-0.185,0.26-0.368c0-0.161-0.059-0.275-0.182-0.338
			c-0.122-0.064-0.337-0.097-0.648-0.097H38.98V50.362z"/>
		<path fill="#FFFFFF" d="M47.242,49.49v2.788c0,0.072,0.019,0.128,0.058,0.164c0.039,0.039,0.11,0.069,0.21,0.095v0.095h-1.661
			v-0.095c0.098-0.021,0.168-0.052,0.207-0.089c0.04-0.04,0.061-0.094,0.061-0.166v-2.794h-1.385c-0.089,0-0.157,0.017-0.203,0.05
			c-0.047,0.033-0.083,0.089-0.112,0.171h-0.112v-1.138h0.112c0.025,0.082,0.061,0.137,0.107,0.17s0.114,0.053,0.204,0.053h3.896
			c0.09,0,0.157-0.018,0.204-0.051c0.046-0.031,0.083-0.09,0.111-0.172h0.113v1.138H48.94c-0.028-0.082-0.065-0.138-0.111-0.171
			s-0.113-0.05-0.204-0.05h-1.383V49.49z"/>
		<path fill="#FFFFFF" d="M52.101,51.003v0.936h2.983c0.086,0,0.153-0.016,0.198-0.048c0.046-0.031,0.084-0.09,0.112-0.172h0.117
			v1.136h-0.117c-0.025-0.081-0.062-0.137-0.11-0.171c-0.047-0.033-0.115-0.05-0.201-0.05h-4.375v-0.095
			c0.097-0.021,0.166-0.05,0.207-0.089c0.041-0.041,0.061-0.094,0.061-0.166v-3.141c0-0.07-0.02-0.125-0.058-0.161
			c-0.039-0.037-0.11-0.067-0.209-0.091v-0.096h4.245c0.09,0,0.157-0.018,0.205-0.051c0.046-0.031,0.083-0.09,0.11-0.172h0.113
			v1.138h-0.113c-0.028-0.084-0.064-0.142-0.11-0.173c-0.047-0.033-0.115-0.048-0.205-0.048H52.1v0.843h1.771
			c0.086,0,0.153-0.018,0.199-0.048c0.046-0.032,0.084-0.089,0.116-0.172h0.113v1.107h-0.113c-0.029-0.081-0.065-0.137-0.112-0.17
			c-0.046-0.03-0.114-0.048-0.204-0.048H52.101L52.101,51.003z"/>
		<path fill="#FFFFFF" d="M57.607,52.284v-3.141c0-0.07-0.019-0.125-0.058-0.161c-0.04-0.037-0.11-0.067-0.21-0.091v-0.096h2.756
			c0.573,0,1.025,0.055,1.355,0.171c0.465,0.165,0.799,0.439,1.003,0.817c0.143,0.267,0.214,0.576,0.214,0.929
			c0,0.656-0.24,1.152-0.717,1.491c-0.215,0.15-0.469,0.26-0.762,0.327c-0.292,0.066-0.657,0.101-1.093,0.101H57.34v-0.095
			c0.098-0.021,0.167-0.052,0.208-0.089C57.586,52.408,57.607,52.354,57.607,52.284z M58.731,51.938h1.2
			c0.551,0,0.951-0.104,1.199-0.311c0.261-0.213,0.391-0.52,0.391-0.915c0-0.397-0.13-0.699-0.391-0.915
			c-0.129-0.107-0.288-0.187-0.478-0.234c-0.19-0.051-0.43-0.075-0.721-0.075h-1.2V51.938z"/>
		<path fill="#FFFFFF" d="M71.327,51.675h-2.163l-0.243,0.417c-0.06,0.101-0.089,0.179-0.089,0.237c0,0.109,0.089,0.179,0.269,0.208
			v0.097h-1.727v-0.097c0.107-0.014,0.186-0.038,0.236-0.079c0.053-0.039,0.113-0.115,0.184-0.229l1.716-2.836
			c0.065-0.11,0.096-0.205,0.096-0.283c0-0.093-0.078-0.168-0.236-0.218v-0.096h1.826v0.096c-0.153,0.05-0.231,0.127-0.231,0.233
			c0,0.074,0.036,0.167,0.105,0.277l1.779,2.752c0.098,0.15,0.174,0.246,0.23,0.29c0.056,0.045,0.141,0.075,0.256,0.093v0.097
			h-1.919v-0.097c0.181-0.025,0.272-0.093,0.272-0.206c0-0.073-0.034-0.159-0.104-0.264L71.327,51.675z M70.988,51.136l-0.77-1.235
			l-0.732,1.235H70.988z"/>
		<path fill="#FFFFFF" d="M76.239,51.057v1.224c0,0.072,0.018,0.128,0.058,0.164c0.039,0.037,0.11,0.067,0.21,0.093v0.097h-1.662
			v-0.097c0.097-0.02,0.167-0.05,0.208-0.089c0.04-0.04,0.06-0.094,0.06-0.166v-3.139c0-0.07-0.02-0.125-0.058-0.161
			c-0.04-0.037-0.109-0.067-0.209-0.093v-0.096h3.08c0.4,0,0.705,0.017,0.915,0.05c0.21,0.032,0.396,0.095,0.562,0.179
			c0.338,0.181,0.507,0.476,0.507,0.884c0,0.312-0.104,0.554-0.313,0.729c-0.208,0.176-0.545,0.303-1.008,0.38l0.89,1.013
			c0.161,0.188,0.29,0.315,0.388,0.381c0.096,0.067,0.205,0.111,0.328,0.129v0.097h-1.976v-0.097
			c0.146-0.033,0.219-0.082,0.219-0.152c0-0.05-0.045-0.129-0.134-0.23l-0.938-1.098H76.239L76.239,51.057z M76.239,50.362h1.694
			c0.258,0,0.447-0.025,0.571-0.069c0.172-0.062,0.26-0.185,0.26-0.368c0-0.161-0.061-0.275-0.182-0.338
			c-0.124-0.064-0.338-0.097-0.649-0.097h-1.694V50.362z"/>
		<path fill="#FFFFFF" d="M84.5,49.49v2.788c0,0.072,0.021,0.128,0.059,0.164c0.04,0.039,0.111,0.069,0.21,0.095v0.095h-1.662
			v-0.095c0.099-0.021,0.167-0.052,0.208-0.089c0.039-0.04,0.061-0.094,0.061-0.166v-2.794h-1.384c-0.091,0-0.159,0.017-0.204,0.05
			c-0.047,0.033-0.083,0.089-0.111,0.171h-0.114v-1.138h0.114c0.025,0.082,0.061,0.137,0.106,0.17
			c0.047,0.033,0.114,0.053,0.205,0.053h3.896c0.09,0,0.157-0.018,0.203-0.051c0.048-0.031,0.084-0.09,0.111-0.172h0.113v1.138
			h-0.113c-0.027-0.082-0.063-0.138-0.111-0.171c-0.046-0.033-0.113-0.05-0.203-0.05H84.5V49.49z"/>
		<path fill="#FFFFFF" d="M92.43,49.14l-0.566,0.895l-0.101-0.044c0-0.074-0.029-0.135-0.088-0.179
			c-0.159-0.116-0.394-0.212-0.704-0.287c-0.311-0.074-0.625-0.113-0.945-0.113c-0.271,0-0.512,0.031-0.722,0.094
			c-0.302,0.09-0.452,0.219-0.452,0.388c0,0.111,0.072,0.19,0.217,0.238c0.146,0.048,0.427,0.085,0.844,0.11l0.662,0.042
			c0.58,0.036,1.021,0.127,1.323,0.275c0.167,0.082,0.306,0.19,0.415,0.329c0.137,0.171,0.205,0.363,0.205,0.579
			c0,0.391-0.216,0.701-0.646,0.924c-0.411,0.217-0.967,0.327-1.67,0.327c-0.706,0-1.392-0.123-2.051-0.365
			c-0.045-0.018-0.083-0.023-0.112-0.023c-0.057,0-0.107,0.025-0.157,0.079l-0.104-0.033l0.482-0.939l0.104,0.033
			c0,0.015,0,0.025,0,0.029c0,0.06,0.027,0.109,0.084,0.15c0.14,0.102,0.383,0.188,0.727,0.261c0.344,0.076,0.684,0.114,1.02,0.114
			c0.297,0,0.562-0.033,0.797-0.099c0.292-0.077,0.438-0.202,0.438-0.377c0-0.137-0.101-0.235-0.304-0.291
			c-0.134-0.036-0.376-0.065-0.726-0.092l-0.658-0.045c-0.354-0.021-0.627-0.052-0.813-0.088c-0.188-0.039-0.353-0.093-0.491-0.164
			c-0.179-0.091-0.319-0.216-0.421-0.374c-0.1-0.157-0.149-0.329-0.149-0.516c0-0.421,0.221-0.742,0.661-0.964
			c0.403-0.2,0.9-0.301,1.495-0.301c0.321,0,0.62,0.027,0.898,0.087c0.279,0.058,0.61,0.162,0.997,0.309
			c0.114,0.042,0.194,0.065,0.239,0.065s0.103-0.027,0.171-0.077L92.43,49.14z"/>
		<path fill="#FFFFFF" d="M101.146,51.675h-2.162l-0.241,0.417c-0.059,0.101-0.091,0.179-0.091,0.237
			c0,0.109,0.091,0.179,0.271,0.208v0.097h-1.729v-0.097c0.107-0.014,0.188-0.038,0.239-0.079c0.051-0.039,0.112-0.115,0.183-0.229
			l1.717-2.836c0.062-0.11,0.097-0.205,0.097-0.283c0-0.093-0.079-0.168-0.237-0.218v-0.096h1.826v0.096
			c-0.155,0.05-0.231,0.127-0.231,0.233c0,0.074,0.035,0.167,0.105,0.277l1.777,2.752c0.1,0.15,0.176,0.246,0.231,0.29
			c0.057,0.045,0.143,0.075,0.256,0.093v0.097h-1.92v-0.097c0.183-0.025,0.273-0.093,0.273-0.206c0-0.073-0.035-0.159-0.104-0.264
			L101.146,51.675z M100.808,51.136l-0.769-1.235l-0.732,1.235H100.808z"/>
		<path fill="#FFFFFF" d="M109.258,51.255l0.71,0.847l-0.097,0.059c-0.065-0.039-0.119-0.059-0.159-0.059
			c-0.047,0-0.159,0.043-0.332,0.127c-0.383,0.181-0.722,0.311-1.015,0.381c-0.294,0.072-0.631,0.106-1.016,0.106
			c-0.766,0-1.39-0.15-1.875-0.448c-0.274-0.174-0.492-0.389-0.654-0.646c-0.174-0.278-0.261-0.582-0.261-0.909
			c0-0.449,0.16-0.846,0.478-1.194c0.501-0.538,1.269-0.807,2.303-0.807c0.384,0,0.726,0.036,1.022,0.104
			c0.298,0.073,0.638,0.198,1.018,0.381c0.173,0.085,0.285,0.127,0.332,0.127c0.04,0,0.094-0.019,0.159-0.057l0.097,0.061
			l-0.71,0.841l-0.093-0.054c0.003-0.028,0.007-0.046,0.01-0.051c0.003-0.02,0.005-0.038,0.005-0.047
			c0-0.111-0.189-0.236-0.568-0.379c-0.357-0.134-0.719-0.2-1.081-0.2c-0.509,0-0.93,0.109-1.259,0.327
			c-0.379,0.246-0.566,0.562-0.566,0.947c0,0.388,0.188,0.704,0.566,0.95c0.333,0.216,0.752,0.325,1.259,0.325
			c0.396,0,0.792-0.081,1.187-0.242c0.308-0.13,0.463-0.24,0.463-0.335c0-0.006-0.005-0.038-0.015-0.097L109.258,51.255z"/>
		<path fill="#FFFFFF" d="M115.327,51.675h-2.16l-0.244,0.417c-0.057,0.101-0.088,0.179-0.088,0.237c0,0.109,0.09,0.179,0.27,0.208
			v0.097h-1.728v-0.097c0.106-0.014,0.188-0.038,0.239-0.079c0.05-0.039,0.111-0.115,0.182-0.229l1.715-2.836
			c0.063-0.11,0.095-0.205,0.095-0.283c0-0.093-0.076-0.168-0.233-0.218v-0.096h1.824v0.096c-0.153,0.05-0.23,0.127-0.23,0.233
			c0,0.074,0.036,0.167,0.104,0.277l1.777,2.752c0.099,0.15,0.177,0.246,0.233,0.29c0.055,0.045,0.141,0.075,0.256,0.093v0.097
			h-1.92v-0.097c0.181-0.025,0.271-0.093,0.271-0.206c0-0.073-0.033-0.159-0.104-0.264L115.327,51.675z M114.99,51.136l-0.77-1.235
			l-0.73,1.235H114.99z"/>
		<path fill="#FFFFFF" d="M119.114,52.284v-3.141c0-0.07-0.019-0.125-0.059-0.161c-0.038-0.037-0.109-0.067-0.208-0.091v-0.096
			h2.756c0.573,0,1.025,0.055,1.354,0.171c0.465,0.165,0.799,0.439,1.004,0.817c0.141,0.267,0.213,0.576,0.213,0.929
			c0,0.656-0.239,1.152-0.718,1.491c-0.215,0.15-0.47,0.26-0.761,0.327c-0.292,0.066-0.656,0.101-1.095,0.101h-2.756v-0.095
			c0.098-0.021,0.168-0.052,0.207-0.089C119.094,52.408,119.114,52.354,119.114,52.284z M120.239,51.938h1.199
			c0.553,0,0.952-0.104,1.201-0.311c0.26-0.213,0.391-0.52,0.391-0.915c0-0.397-0.131-0.699-0.391-0.915
			c-0.129-0.107-0.287-0.187-0.479-0.234c-0.19-0.051-0.43-0.075-0.723-0.075h-1.199V51.938z"/>
		<path fill="#FFFFFF" d="M127.401,51.003v0.936h2.982c0.088,0,0.153-0.016,0.2-0.048c0.047-0.031,0.083-0.09,0.109-0.172h0.119
			v1.136h-0.119c-0.024-0.081-0.061-0.137-0.108-0.171c-0.048-0.033-0.113-0.05-0.201-0.05h-4.375v-0.095
			c0.098-0.021,0.165-0.05,0.207-0.089c0.042-0.041,0.061-0.094,0.061-0.166v-3.141c0-0.07-0.019-0.125-0.059-0.161
			c-0.04-0.037-0.108-0.067-0.209-0.091v-0.096h4.246c0.088,0,0.156-0.018,0.202-0.051c0.045-0.031,0.084-0.09,0.112-0.172h0.112
			v1.138h-0.112c-0.028-0.084-0.067-0.142-0.112-0.173c-0.046-0.033-0.114-0.048-0.202-0.048h-2.854v0.843h1.77
			c0.087,0,0.153-0.018,0.199-0.048c0.047-0.032,0.085-0.089,0.117-0.172h0.113v1.107h-0.113c-0.028-0.081-0.066-0.137-0.111-0.17
			c-0.047-0.03-0.114-0.048-0.205-0.048H127.401L127.401,51.003z"/>
		<path fill="#FFFFFF" d="M135.645,52.634l-1.714-2.525v2.172c0,0.072,0.019,0.126,0.06,0.164c0.039,0.037,0.107,0.067,0.208,0.093
			v0.097h-1.56v-0.097c0.098-0.02,0.167-0.05,0.207-0.089c0.04-0.04,0.061-0.094,0.061-0.166v-3.139c0-0.07-0.02-0.127-0.059-0.163
			c-0.039-0.039-0.109-0.067-0.209-0.091v-0.096h1.985v0.096c-0.131,0.035-0.198,0.098-0.198,0.196c0,0.092,0.048,0.206,0.144,0.341
			l1.171,1.738l1.182-1.713c0.134-0.182,0.201-0.309,0.201-0.386c0-0.092-0.069-0.151-0.206-0.175v-0.096h1.937v0.096
			c-0.102,0.021-0.172,0.052-0.211,0.089c-0.04,0.038-0.059,0.093-0.059,0.163v3.137c0,0.072,0.019,0.128,0.059,0.166
			c0.039,0.037,0.109,0.069,0.211,0.093v0.095h-1.662v-0.095c0.097-0.021,0.168-0.05,0.206-0.089
			c0.039-0.042,0.061-0.094,0.061-0.166v-2.176L135.645,52.634z"/>
		<path fill="#FFFFFF" d="M143.648,50.947v1.335c0,0.072,0.021,0.126,0.059,0.164c0.039,0.037,0.111,0.069,0.21,0.095v0.093h-1.662
			v-0.093c0.102-0.023,0.172-0.056,0.21-0.091c0.039-0.041,0.059-0.094,0.059-0.168v-1.335l-1.394-1.567
			c-0.155-0.173-0.281-0.294-0.375-0.359c-0.094-0.063-0.205-0.107-0.334-0.129v-0.096h2.118v0.096
			c-0.183,0.039-0.274,0.107-0.274,0.206c0,0.052,0.066,0.152,0.198,0.303l0.682,0.771l0.668-0.771
			c0.13-0.154,0.196-0.257,0.196-0.305c0-0.097-0.09-0.165-0.268-0.206l-0.006-0.096h2.014v0.096
			c-0.13,0.023-0.24,0.065-0.333,0.131c-0.094,0.065-0.221,0.185-0.375,0.359L143.648,50.947z"/>
	</g>
</g>
</svg>
